<svg xmlns="http://www.w3.org/2000/svg" viewBox="0 0 24 24"><path d="M.045 18.02c.072-.116.187-.124.348-.022 3.636 2.11 7.594 3.166 11.87 3.166 2.852 0 5.668-.533 8.447-1.595l.315-.14c.138-.06.234-.1.293-.065.138.06.206.262.138.42a.524.524 0 0 1-.083.144c-.182.272-.41.395-.68.457a24.18 24.18 0 0 1-8.418 1.463c-4.5 0-8.688-1.174-12.57-3.523-.162-.1-.195-.21-.1-.337zm13.26-13.6c-1.322.09-2.55.297-3.69.635-1.15.338-2.152.747-3.003 1.227-.85.48-1.63 1.04-2.34 1.682-.7.642-1.393 1.413-2.07 2.313-.42.562-.78 1.14-1.09 1.73-.3.59-.54 1.2-.72 1.84-.18.64-.28 1.24-.3 1.82-.02.58.13 1.08.48 1.51.34.43.85.68 1.32.83.47.16 1.08.26 1.85.23.77-.04 1.68-.17 2.73-.41 2.13-.52 3.82-.58 5.08-.21 1.26.37 2.39 1.15 3.39 2.33l.22.28c.54.69.98 1.18 1.15 1.65.09.26.1.49.03.7-.07.21-.2.37-.36.48-.16.11-.4.18-.71.17-.31-.01-.72-.09-1.22-.29-.5-.2-1.02-.48-1.58-.84-.56-.37-1.11-.77-1.75-1.2-.64-.42-1.44-.82-2.4-1.17-.96-.36-2.1-.57-3.44-.63-1.34-.06-2.77.09-4.29.42a25.127 25.127 0 0 0-4.6 1.55c-.88.4-1.8.78-2.74 1.14-1.66.56-2.8.55-3.42-.05-.25-.24-.38-.58-.38-.98 0-.42.08-.92.24-1.5a10.8 10.8 0 0 1 .78-2.08c.36-.71.87-1.5 1.53-2.37.66-.88 1.4-1.74 2.23-2.58.82-.84 1.84-1.71 3.05-2.6 1.22-.88 2.6-1.72 4.15-2.52.3-.16.59-.3.87-.43a16.24 16.24 0 0 1 7.98-2.07 17.4 17.4 0 0 1 4.02.43c1.03.2 2 .48 2.9.87.9.38 1.73.86 2.48 1.42.76.57 1.45 1.2 2.06 1.9.62.7 1.16 1.52 1.63 2.43.47.91.74 1.84.8 2.78.06.94-.06 1.88-.37 2.79-.3.91-.71 1.78-1.2 2.6-.5.83-1.12 1.66-1.86 2.48-.73.82-1.6 1.65-2.6 2.5-1 .84-2.04 1.63-3.13 2.35-1.08.73-2.3 1.43-3.65 2.12a23.81 23.81 0 0 1-4.08 1.7c-.7.21-1.44.42-2.25.62-.8.2-1.51.3-2.13.3-.25 0-.5-.02-.74-.06a2.4 2.4 0 0 1-.66-.22 1.1 1.1 0 0 1-.44-.41.97.97 0 0 1-.14-.55c0-.22.05-.46.16-.7.1-.26.2-.48.3-.68.1-.2.27-.46.5-.78.24-.32.46-.58.67-.78.22-.2.5-.44.86-.72.35-.28.74-.52 1.15-.72.42-.2.77-.37 1.06-.52.28-.14.64-.29 1.07-.45.43-.15.82-.26 1.18-.31.36-.06.68-.08.95-.06.28.02.56.1.86.22.3.13.58.3.84.5l.09.07c.56.43 1 .76 1.34 1 .33.24.66.43 1 .58.33.15.66.25.98.3.32.05.67.04 1.06-.04.38-.07.8-.22 1.24-.44.44-.22.9-.55 1.37-.97.47-.43.92-.93 1.34-1.52.42-.58.75-1.18.99-1.77.24-.6.35-1.2.33-1.78a3.3 3.3 0 0 0-.38-1.46 4.24 4.24 0 0 0-.98-1.28 6.2 6.2 0 0 0-1.49-1c-.57-.28-1.19-.5-1.86-.66a9.37 9.37 0 0 0-2.07-.28c-.7-.01-1.46.05-2.25.2-.8.14-1.54.34-2.23.58-.7.24-1.43.56-2.2.95-.77.4-1.47.82-2.1 1.26-.63.44-1.28.96-1.95 1.54-.67.58-1.22 1.13-1.66 1.63-.06.07-.12.14-.17.2z" fill="#FF9900"/></svg>
