<svg xmlns="http://www.w3.org/2000/svg" viewBox="0 0 24 24"><path d="M12 0C5.373 0 0 5.373 0 12s5.373 12 12 12 12-5.373 12-12S18.627 0 12 0zm0 21.6c-5.302 0-9.6-4.298-9.6-9.6s4.298-9.6 9.6-9.6 9.6 4.298 9.6 9.6-4.298 9.6-9.6 9.6z" fill="#00A8E0"/><path d="M4.8 12c0-3.976 3.224-7.2 7.2-7.2s7.2 3.224 7.2 7.2-3.224 7.2-7.2 7.2-7.2-3.224-7.2-7.2z" fill="#00A8E0"/><path d="M7.2 12c0-2.651 2.149-4.8 4.8-4.8s4.8 2.149 4.8 4.8-2.149 4.8-4.8 4.8-4.8-2.149-4.8-4.8z" fill="#00A8E0"/><path d="M9.6 12c0-1.325 1.075-2.4 2.4-2.4s2.4 1.075 2.4 2.4-1.075 2.4-2.4 2.4-2.4-1.075-2.4-2.4z" fill="#00A8E0"/></svg>
