<svg xmlns="http://www.w3.org/2000/svg" viewBox="0 0 24 24"><path d="M16.61 15.15c-.46 0-.84-.37-.84-.83V9.68c0-.46.38-.84.84-.84s.84.38.84.84v4.64c0 .46-.38.83-.84.83m0-6.95c-.96 0-1.74.78-1.74 1.74v3.87c0 .96.78 1.74 1.74 1.74s1.74-.78 1.74-1.74V9.94c0-.96-.78-1.74-1.74-1.74M7.39 8.2c-.96 0-1.74.78-1.74 1.74v3.87c0 .96.78 1.74 1.74 1.74s1.74-.78 1.74-1.74V9.94c0-.96-.78-1.74-1.74-1.74m0 6.95c-.46 0-.84-.37-.84-.83V9.68c0-.46.38-.84.84-.84s.84.38.84.84v4.64c0 .46-.38.83-.84.83M12 3.5c-1.67 0-3.04 1.36-3.04 3.04V6c0 .42.34.76.76.76s.76-.34.76-.76A1.5 1.5 0 0 1 12 4.52 1.5 1.5 0 0 1 13.52 6v.54c0 .42.34.76.76.76s.76-.34.76-.76V6c0-1.68-1.37-3.04-3.04-3.04M12 22c-5.52 0-10-4.48-10-10S6.48 2 12 2s10 4.48 10 10-4.48 10-10 10m0-18c-4.41 0-8 3.59-8 8s3.59 8 8 8 8-3.59 8-8-3.59-8-8-8" fill="#00B0FF"/></svg>
