<svg xmlns="http://www.w3.org/2000/svg" viewBox="0 0 24 24"><path d="M12 0C5.373 0 0 5.373 0 12s5.373 12 12 12 12-5.373 12-12S18.627 0 12 0zm0 18.672c-3.682 0-6.672-2.99-6.672-6.672S8.318 5.328 12 5.328 18.672 8.318 18.672 12 15.682 18.672 12 18.672z" fill="#003595"/><path d="M12 7.328c-2.58 0-4.672 2.092-4.672 4.672S9.42 16.672 12 16.672 16.672 14.58 16.672 12 14.58 7.328 12 7.328z" fill="#003595"/><text x="12" y="16" font-family="Arial" font-size="8" fill="#FFF" text-anchor="middle">GEICO</text></svg>
