<svg xmlns="http://www.w3.org/2000/svg" viewBox="0 0 24 24"><path d="M16.36 14c.08-.66.14-1.32.14-2 0-.68-.06-1.34-.14-2h3.38c.16.64.26 1.31.26 2s-.1 1.36-.26 2m-5.15 5.56c.6-1.11 1.06-2.31 1.38-3.56h2.95a8.03 8.03 0 0 1-4.33 3.56M11.34 14H8.66a14.1 14.1 0 0 1-.33-2c0-.68.11-1.33.33-2h2.68c-.1.66-.17 1.33-.17 2s.07 1.34.17 2m.83-8.56a8.03 8.03 0 0 0-4.33 3.56H4.89c1.13-1.49 2.64-2.67 4.33-3.56M6.21 14H4.26c-.16-.64-.26-1.31-.26-2s.1-1.36.26-2h1.95c-.08.66-.12 1.33-.12 2s.04 1.34.12 2m1.63 2c.32 1.25.78 2.45 1.38 3.56A8.03 8.03 0 0 1 4.89 16h2.95m7.2-6h-3.38c.08.66.17 1.33.17 2s-.09 1.34-.17 2h3.38c.08-.66.12-1.34.12-2s-.04-1.34-.12-2M12 4.03c.52.96.95 1.98 1.27 3.03H10.73c.32-1.05.75-2.07 1.27-3.03M19.11 8h-2.95a14.8 14.8 0 0 0-1.38-3.56A8.03 8.03 0 0 1 19.11 8M12 2C6.47 2 2 6.5 2 12a10 10 0 0 0 10 10 10 10 0 0 0 10-10A10 10 0 0 0 12 2z" fill="#2196F3"/></svg>
