<svg xmlns="http://www.w3.org/2000/svg" viewBox="0 0 111.09 50"><path d="M22.03 0c-4.64.29-10.16 3.96-13.44 9.1-2.92 4.56-5.32 11.51-4.07 18.42 3.44 19 21.8 22.59 28.91 22.48.91.15 1.67-.56 1.9-1.42l3.33-12.3c.31-1.14-.57-2.28-1.76-2.18-3.22.28-7.88-.85-11.18-4.25-3.65-3.78-3.38-10.83-.35-15.56 2.49-3.89 5.64-6.12 9.44-6.1 1.07.01 1.86-.9 1.86-1.97v-.26c0-1.04-.76-1.95-1.79-2.04-1.88-.15-4.76-.59-6.24.44-2.63 1.82-3.65 1.6-4.29-.6-.31-1.05-1.2-1.85-2.32-1.76z" fill="#e50914"/><path d="M32.43.14c-.98.01-1.87.61-2.2 1.56-.49 1.43-.17 3.15.94 4.26 1.37 1.37 3.5 1.33 4.12.61l3.76-4.37c.67-.78.54-1.97-.3-2.04-2.06-.19-4.31-.04-6.32-.02z" fill="#e50914"/><path d="M61.05.7c-13.4 0-22.91 9.52-22.91 22.91 0 13.39 9.51 22.91 22.91 22.91s22.91-9.52 22.91-22.91C83.96 10.22 74.45.7 61.05.7zm0 7.27c8.71 0 15.64 6.93 15.64 15.64 0 8.71-6.93 15.64-15.64 15.64-8.71 0-15.64-6.93-15.64-15.64 0-8.71 6.93-15.64 15.64-15.64z" fill="#e50914"/><path d="M105.27.7c-7.37 0-12.55 5.16-12.55 12.55 0 7.38 5.18 12.55 12.55 12.55s12.55-5.17 12.55-12.55c0-7.39-5.18-12.55-12.55-12.55zm0 7.27c3.33 0 5.28 1.93 5.28 5.28 0 3.34-1.95 5.28-5.28 5.28s-5.28-1.94-5.28-5.28c0-3.35 1.95-5.28 5.28-5.28z" fill="#e50914"/></svg>
