<svg width="180" height="180" viewBox="0 0 180 180" fill="none" xmlns="http://www.w3.org/2000/svg">
  <!-- Background circle -->
  <circle cx="90" cy="90" r="90" fill="white"/>
  <!-- Gold arc -->
  <path d="M 25 105 A 70 70 0 0 1 155 105" stroke="#C9A227" stroke-width="10" fill="none" stroke-linecap="round"/>
  <!-- House body blue -->
  <rect x="58" y="100" width="54" height="40" rx="2" fill="#1E6BB8"/>
  <!-- House roof -->
  <polygon points="50,102 85,68 120,102" fill="#1565C0"/>
  <!-- Door -->
  <rect x="78" y="118" width="18" height="22" rx="2" fill="#0D47A1"/>
  <!-- Window left -->
  <rect x="60" y="108" width="12" height="10" rx="1" fill="#90CAF9"/>
  <!-- Window right -->
  <rect x="98" y="108" width="12" height="10" rx="1" fill="#90CAF9"/>
  <!-- Sparkle top left -->
  <path d="M 52 80 L 54 72 L 56 80 L 64 82 L 56 84 L 54 92 L 52 84 L 44 82 Z" fill="#1E6BB8" opacity="0.8"/>
  <!-- Sparkle top right -->
  <path d="M 118 76 L 120 70 L 122 76 L 128 78 L 122 80 L 120 86 L 118 80 L 112 78 Z" fill="#C9A227" opacity="0.9"/>
</svg>
